<?xml version="1.0" encoding="utf-8"?><svg viewBox="0 0 512 484.31" xmlns="http://www.w3.org/2000/svg" xmlns:xlink="http://www.w3.org/1999/xlink"><style>:root>svg{display:none}:root>svg:target{display:block}</style><svg viewBox="0 0 512 484.31" id="TEST" xmlns="http://www.w3.org/2000/svg"><defs><style>.acls-1{fill:#d12c2c}</style></defs><g id="aСлой_2" data-name="Слой 2"><g id="aLayer_1" data-name="Layer 1"><path class="acls-1" d="M256 289.37a97.43 97.43 0 0 0-61.31 173.18 10.83 10.83 0 0 0 1.35 1.08 97.26 97.26 0 0 0 119.92 0 10.83 10.83 0 0 0 1.35-1.08A97.43 97.43 0 0 0 256 289.37zm0 174.94a77 77 0 0 1-42.79-12.94c6.58-16.89 23.63-28.6 42.79-28.6s36.21 11.71 42.79 28.6A77 77 0 0 1 256 464.31zm-17.62-77.47a15.94 15.94 0 1 1 15.94 15.93 16 16 0 0 1-15.94-15.93zm76.07 50.76A65.74 65.74 0 0 0 283 408.49a35.94 35.94 0 1 0-56.4 1.15 65.59 65.59 0 0 0-29 28 77.47 77.47 0 1 1 116.9 0zM97.47 0a97.43 97.43 0 0 0-61.31 173.18 10 10 0 0 0 1.35 1.08 97.25 97.25 0 0 0 119.91 0 8.88 8.88 0 0 0 1.35-1.08A97.42 97.42 0 0 0 97.47 0zm0 174.94A77 77 0 0 1 54.68 162c6.57-16.89 23.63-28.6 42.79-28.6s36.21 11.71 42.79 28.6a77 77 0 0 1-42.79 12.94zM79.85 97.47a15.94 15.94 0 1 1 15.93 15.93 15.95 15.95 0 0 1-15.93-15.93zm76.06 50.76a65.67 65.67 0 0 0-31.47-29.11A35.93 35.93 0 1 0 68 120.27a65.62 65.62 0 0 0-29 28 77.48 77.48 0 1 1 116.89 0zM414.53 0a97.42 97.42 0 0 0-61.3 173.18 9.32 9.32 0 0 0 1.34 1.08 97.26 97.26 0 0 0 119.92 0 10 10 0 0 0 1.35-1.08A97.43 97.43 0 0 0 414.53 0zm0 174.94A77 77 0 0 1 371.74 162c6.58-16.89 23.63-28.6 42.79-28.6s36.22 11.71 42.79 28.6a77 77 0 0 1-42.79 12.94zm-17.61-77.47a15.93 15.93 0 1 1 15.93 15.93 15.94 15.94 0 0 1-15.93-15.93zM473 148.23a65.74 65.74 0 0 0-31.48-29.11 35.93 35.93 0 1 0-56.4 1.15 65.57 65.57 0 0 0-29 28 77.47 77.47 0 1 1 116.89 0zM141 341.59l-.12-.11a10 10 0 0 0-13 15.2l.13.1a10 10 0 0 0 13-15.19zM121.47 321.53l-.13-.15A10 10 0 0 0 106 334.26a10 10 0 0 0 15.42-12.75zM105.25 298.6l-.11-.19A10 10 0 1 0 88 308.7a10 10 0 0 0 8.63 5 9.88 9.88 0 0 0 5.05-1.38 10 10 0 0 0 3.57-13.72zM84.51 246.46A10 10 0 1 0 65 250.67s0 .17.05.2a10 10 0 0 0 9.75 7.8 10.64 10.64 0 0 0 2.22-.25 10 10 0 0 0 7.49-11.96zM92.8 273.34v-.15a10 10 0 0 0-18.55 7.48 10 10 0 1 0 18.59-7.37zM385.24 342.66a10 10 0 0 0-14.1-1.18l-.11.11a10 10 0 0 0 13 15.19 1 1 0 0 0 .11-.1 10 10 0 0 0 1.1-14.02zM432.27 267.66a10 10 0 0 0-13 5.53s-.05.13-.05.15a9.94 9.94 0 0 0 5.59 12.92 9.79 9.79 0 0 0 3.69.71 10 10 0 0 0 3.79-19.31zM404.75 320.18a10 10 0 0 0-14.09 1.2l-.13.15a10 10 0 1 0 14.22-1.35zM439.41 238.82a10 10 0 0 0-11.92 7.6 10 10 0 1 0 19.5 4.43l.05-.21a10 10 0 0 0-7.63-11.82zM420.59 295a10 10 0 0 0-13.73 3.4l-.11.19a10 10 0 1 0 13.84-3.59zM442 209.21a10 10 0 0 0-10.54 9.44 10 10 0 0 0 9.43 10.52h.56a10 10 0 0 0 .55-20zM318.22 18.07h-.09a10 10 0 1 0-6.15 19h.09a10 10 0 0 0 6.15-19zM287.49 10.85h-.26a10 10 0 0 0-3 19.78 10.13 10.13 0 0 0 1.63.13 10 10 0 0 0 1.61-19.87zM255.88 8.59h-.25a10 10 0 0 0 .1 20h.15a10 10 0 0 0 0-20zM206.09 24.79a10 10 0 0 0-12.47-6.67h-.13a10 10 0 1 0 12.6 6.63zM235.8 19.63a10 10 0 0 0-11.45-8.28l1.46 9.89-1.48-9.89a10 10 0 0 0 1.47 19.89 9.43 9.43 0 0 0 1.49-.11h.21a10 10 0 0 0 8.3-11.5zM80.36 216.47a10 10 0 1 0-19.55 4.21 1.55 1.55 0 0 0 0 .21 10 10 0 0 0 19.51-4.42z"/></g></g></svg><svg viewBox="0 0 24 24" id="icon-clock" xmlns="http://www.w3.org/2000/svg"><path d="M12 23.988c-6.627 0-12-5.373-12-12s5.373-12 12-12 12 5.373 12 12-5.373 12-12 12zm0-21a9 9 0 0 0-9 9 9 9 0 0 0 9 9 9 9 0 0 0 9-9 9 9 0 0 0-9-9zm6 10.5h-6a1.498 1.498 0 0 1-1.5-1.484V5.973c0-.824.672-1.5 1.5-1.5s1.5.676 1.5 1.5v4.515H18a1.5 1.5 0 0 1 0 3z"/></svg><svg viewBox="0 0 24 21" id="icon-inbox" xmlns="http://www.w3.org/2000/svg"><path d="M20.988 20.996H3.01A3 3 0 0 1 0 18.011v-7.515c0-.16.025-.321.075-.473L2.84 1.728A2.617 2.617 0 0 1 5.265-.004h13.47a2.615 2.615 0 0 1 2.424 1.733l2.764 8.295c.05.15.076.312.076.472v7.515a3 3 0 0 1-3.011 2.985zm-2.568-18H5.58l-1.998 6h4.173c.183.003.36.039.53.105.05.023.101.048.15.075a1.497 1.497 0 0 1 .427.327c.082.095.153.198.21.312.027.044.05.09.075.137 0 .016.018.03.024.045a2.996 2.996 0 0 0 2.829 2 2.996 2.996 0 0 0 2.829-2c0-.015.018-.03.025-.045.023-.046.045-.093.076-.137a1.39 1.39 0 0 1 .635-.637l.15-.075c.168-.066.345-.102.529-.105h4.174zm2.58 9h-3.815a5.984 5.984 0 0 1-10.37 0H3v6.015c0-.015 0-.015.01-.015h17.98c.01 0 .01 0 .01.015z"/></svg><svg viewBox="0 0 24 24" id="icon-reload" xmlns="http://www.w3.org/2000/svg"><path d="M23.26 9.001h-6.805c-.825 0-1.025-.468-.425-1.065l2.31-2.3a9.045 9.045 0 0 0-6.394-2.635c-4.6 0-8.396 3.424-8.961 7.853 0 0-.174 1.147-1.48 1.147a1.504 1.504 0 0 1-1.468-1.83C.922 4.41 5.917 0 11.947 0c3.33 0 6.342 1.342 8.524 3.514l2.47-2.46C23.526.473 24 .675 24 1.485v6.78a.748.748 0 0 1-.74.736zM.74 15h6.805c.825 0 1.024.468.424 1.065l-2.31 2.3A9.031 9.031 0 0 0 12.054 21c4.602 0 8.397-3.424 8.964-7.852 0 0 .174-1.147 1.479-1.147a1.503 1.503 0 0 1 1.465 1.83C23.077 19.59 18.082 24 12.052 24c-3.33 0-6.342-1.343-8.523-3.515l-2.47 2.46c-.585.584-1.059.381-1.059-.43v-6.78C0 15.33.345 15 .74 15z"/></svg></svg>